<svg width="768" height="381" viewBox="0 0 768 381" fill="none" xmlns="http://www.w3.org/2000/svg">
    <path d="M343.83 198.686L199.072 244.48C200.375 236.614 204.185 224.433 215.25 220.117L217.855 219.268L217.877 219.261L269.178 202.525L307.018 190.173C307.058 190.207 307.1 190.239 307.144 190.269C312.104 194.565 318.043 197.579 324.439 199.046C330.835 200.514 337.493 200.39 343.83 198.686ZM158.807 257.212L103.793 274.618C95.5348 277.23 88.0104 281.755 81.8319 287.824C75.6535 293.894 70.9957 301.337 68.2377 309.548L56.9937 343.019C56.403 344.834 55.2274 346.402 53.6507 347.478C52.074 348.554 50.1853 349.077 48.2798 348.965V331.76C48.3168 323.053 49.6947 314.404 52.3652 306.117L55.7138 296.57C58.7179 287.998 63.6576 280.235 70.1492 273.883C76.6408 267.531 84.5096 262.761 93.1441 259.943L128.111 248.543C143.828 244.926 153.219 249.801 158.807 257.212Z" fill="#FF9200"/>
    <path d="M298.259 193.038L269.178 202.525L217.877 219.261L217.855 219.268L215.25 220.117C198.395 226.695 198.38 251.52 198.38 251.52V282.485C198.38 283.785 197.864 285.031 196.945 285.95C196.026 286.869 194.78 287.386 193.48 287.386C192.181 287.386 190.934 286.869 190.015 285.95C189.096 285.031 188.58 283.785 188.58 282.485V247.799C188.58 247.799 187.523 239.963 182.761 239.963C178.006 239.963 176.815 251.52 176.815 251.52V332.236C176.815 333.537 176.299 334.784 175.379 335.704C174.459 336.624 173.212 337.14 171.911 337.14C170.611 337.14 169.363 336.624 168.444 335.704C167.524 334.784 167.007 333.537 167.007 332.236V284.991C166.74 274.878 163.272 240.447 128.111 248.543L93.1441 259.943C84.5096 262.761 76.6408 267.531 70.1492 273.883C63.6576 280.235 58.7179 287.998 55.7138 296.57L52.3652 306.117C49.6947 314.404 48.3168 323.053 48.2798 331.76V360.834C48.2798 362.134 47.7632 363.382 46.8435 364.301C45.9239 365.221 44.6765 365.738 43.3759 365.738C42.0754 365.738 40.828 365.221 39.9084 364.301C38.9887 363.382 38.4721 362.134 38.4721 360.834V354.263C38.5167 342.58 32.1618 327.34 32.1618 327.34L13.1341 276.679C7.13652 260.712 5.97129 243.334 9.78366 226.709C13.596 210.085 22.2173 194.95 34.5728 183.193L131.385 101.664C131.851 101.337 132.298 100.984 132.725 100.608C133.863 99.6302 134.923 98.5654 135.895 97.4229C140.085 102.122 145.154 105.957 150.815 108.712C151.234 108.917 151.669 109.086 152.117 109.218C155.563 110.215 159.097 111.338 162.617 112.559C223.488 133.588 287.454 183.334 295.134 189.406C296.113 190.669 297.156 191.881 298.259 193.038Z" fill="#F9D129"/>
    <path d="M78.1496 208.441C127.531 210.685 230.356 189.224 212.028 134.771C196.135 126.208 179.263 118.309 162.621 112.56C159.149 111.354 155.647 110.239 152.118 109.215C151.669 109.085 151.233 108.917 150.813 108.712C145.154 105.956 140.088 102.122 135.898 97.4251C134.572 99.0177 133.057 100.442 131.385 101.667L34.5735 183.196C22.218 194.953 13.5965 210.088 9.78377 226.712C5.97103 243.336 7.1357 260.715 13.1326 276.682C13.1326 276.682 28.7685 206.198 78.1496 208.442V208.441Z" fill="#F9DB54"/>
    <path d="M138.054 247.319C134.705 247.349 131.37 247.759 128.113 248.539L93.1463 259.946C84.5114 262.763 76.6422 267.533 70.1499 273.884C63.6577 280.236 58.7172 287.999 55.7123 296.571L52.3652 306.117C49.6958 314.405 48.3174 323.055 48.2784 331.762V348.961C49.9494 349.056 51.6122 348.664 53.0651 347.833C54.5179 347.002 55.6986 345.767 56.4639 344.279V331.762C56.5138 323.967 57.7398 316.224 60.1005 308.795L63.4365 299.278C66.0451 291.906 70.3081 285.229 75.8983 279.76C81.4885 274.291 88.2573 270.175 95.6853 267.728L130.292 256.44C132.837 255.848 135.44 255.534 138.054 255.504C143.129 255.504 147.132 256.935 150.287 259.913L158.807 257.217C154.508 251.525 147.981 247.319 138.054 247.319Z" fill="#F05D00"/>
    <path d="M162.621 112.56C159.149 111.354 155.647 110.239 152.118 109.215C151.669 109.085 151.233 108.917 150.813 108.712C145.154 105.957 140.088 102.123 135.898 97.4259C134.572 99.0185 133.057 100.443 131.385 101.667L75.3294 148.874C87.0868 159.234 105.5 165.913 126.214 165.913C160.839 165.913 189.059 147.265 190.434 123.912C181.362 119.657 172.078 115.868 162.62 112.56H162.621Z" fill="#F9EA76"/>
    <path d="M333.394 200.062C327.09 200.066 320.874 198.581 315.252 195.729C309.631 192.876 304.762 188.735 301.044 183.645L301.042 183.646C301.042 183.646 299.54 182.434 296.783 180.305C293.742 181.119 290.399 182.022 286.794 183.001C289.601 185.102 292.381 187.238 295.136 189.407C301.385 197.491 310.027 203.397 319.829 206.282L344.1 198.604C340.614 199.571 337.012 200.061 333.394 200.061V200.062Z" fill="#FF7000"/>
    <path d="M361.697 131.579C357.981 127.863 353.569 124.916 348.713 122.908C343.857 120.899 338.652 119.868 333.397 119.874C325.989 119.867 318.724 121.914 312.409 125.786C306.094 129.659 300.976 135.206 297.622 141.812C294.269 148.417 292.812 155.823 293.413 163.207C294.014 170.59 296.65 177.663 301.027 183.639C299.963 182.776 231.495 127.695 165.303 104.827C161.657 103.562 158.021 102.404 154.394 101.352C145.413 96.9868 138.383 89.4276 134.68 80.1533C130.977 70.8789 130.868 60.5566 134.373 51.2059C137.879 41.8551 144.747 34.1488 153.634 29.5944C162.522 25.04 172.788 23.9654 182.426 26.5807V26.5733C182.434 26.5742 182.442 26.5767 182.448 26.5807C184.078 26.8486 286.822 44.1573 361.697 131.579Z" fill="#F9A213"/>
    <path d="M373.492 159.968C373.49 169.219 370.29 178.184 364.434 185.346C358.579 192.507 350.427 197.424 341.361 199.263C332.295 201.102 322.872 199.751 314.689 195.437C306.505 191.124 300.065 184.114 296.458 175.595C303.615 180.465 312.156 182.89 320.805 182.506C329.453 182.121 337.746 178.95 344.443 173.464C351.14 167.978 355.883 160.473 357.963 152.069C360.042 143.666 359.348 134.815 355.982 126.839C361.38 130.515 365.798 135.455 368.85 141.23C371.902 147.004 373.495 153.437 373.492 159.968Z" fill="#FED987"/>
    <path d="M359.137 142.458C359.136 149.75 357.146 156.903 353.382 163.149C349.619 169.394 344.224 174.495 337.777 177.903C331.331 181.311 324.077 182.897 316.797 182.49C309.517 182.084 302.485 179.7 296.458 175.595C293.085 167.618 292.385 158.764 294.463 150.357C296.54 141.949 301.283 134.44 307.983 128.952C314.683 123.464 322.979 120.293 331.631 119.912C340.283 119.531 348.826 121.961 355.982 126.839C358.071 131.781 359.144 137.093 359.137 142.458Z" fill="#FEE5AE"/>
    <path d="M194.634 190.222C208.858 190.222 220.388 183.459 220.388 175.117C220.388 166.775 208.858 160.013 194.634 160.013C180.411 160.013 168.881 166.775 168.881 175.117C168.881 183.459 180.411 190.222 194.634 190.222Z" fill="#FF6965"/>
    <path d="M194.634 190.222C180.411 190.222 168.88 183.459 168.88 175.117V181.399C168.88 189.741 180.411 196.504 194.634 196.504C208.856 196.504 220.388 189.741 220.388 181.399V175.117C220.388 183.459 208.857 190.222 194.634 190.222Z" fill="#FF4A45"/>
    <path d="M76.7209 167.218C90.944 167.218 102.474 160.456 102.474 152.113C102.474 143.771 90.944 137.009 76.7209 137.009C62.4978 137.009 50.9677 143.771 50.9677 152.113C50.9677 160.456 62.4978 167.218 76.7209 167.218Z" fill="#FF6965"/>
    <path d="M76.7209 167.217C62.4974 167.217 50.9677 160.455 50.9677 152.114V158.396C50.9677 166.737 62.4974 173.5 76.7209 173.5C90.9444 173.5 102.474 166.737 102.474 158.396V152.113C102.474 160.455 90.9437 167.217 76.7209 167.217Z" fill="#FF4A45"/>
    <path d="M84.4726 227.648C98.6957 227.648 110.226 220.885 110.226 212.543C110.226 204.201 98.6957 197.438 84.4726 197.438C70.2495 197.438 58.7194 204.201 58.7194 212.543C58.7194 220.885 70.2495 227.648 84.4726 227.648Z" fill="#FF6965"/>
    <path d="M84.4726 227.648C70.2499 227.648 58.7194 220.885 58.7194 212.543V218.826C58.7194 227.168 70.2499 233.93 84.4726 233.93C98.6954 233.93 110.227 227.168 110.227 218.826V212.543C110.227 220.885 98.6961 227.648 84.4726 227.648Z" fill="#FF4A45"/>
    <path d="M172.976 221.572H153.783C152.796 221.572 151.849 221.18 151.152 220.483C150.454 219.785 150.062 218.838 150.062 217.852C150.062 216.865 150.454 215.918 151.152 215.221C151.849 214.523 152.796 214.131 153.783 214.131H172.976C173.963 214.131 174.909 214.523 175.607 215.221C176.305 215.918 176.697 216.865 176.697 217.852C176.697 218.838 176.305 219.785 175.607 220.483C174.909 221.18 173.963 221.572 172.976 221.572ZM42.7323 193.015C41.929 193.015 41.1475 192.754 40.5044 192.273C39.8613 191.791 39.3911 191.115 39.1641 190.344L34.2141 173.528C33.9354 172.582 34.0442 171.563 34.5165 170.697C34.9888 169.83 35.786 169.187 36.7326 168.908C37.6793 168.63 38.6978 168.739 39.5642 169.211C40.4307 169.683 41.074 170.48 41.3526 171.427L46.3034 188.243C46.4661 188.798 46.4973 189.383 46.3945 189.953C46.2917 190.522 46.0577 191.059 45.7111 191.523C45.3645 191.986 44.9148 192.362 44.3976 192.621C43.8804 192.88 43.3107 193.015 42.7323 193.015ZM143.183 146.176C131.51 146.176 123.037 141.384 123.037 134.779C123.037 128.174 131.51 123.381 143.183 123.381C154.856 123.381 163.328 128.174 163.328 134.779C163.328 141.383 154.856 146.176 143.183 146.176ZM143.183 130.823C134.868 130.823 130.623 133.863 130.478 134.786C130.623 135.694 134.869 138.735 143.183 138.735C151.477 138.735 155.72 135.71 155.886 134.779C155.721 133.847 151.477 130.823 143.183 130.823ZM40.895 277.821C37.4474 277.821 34.642 276.644 32.9922 274.245C31.8194 272.537 30.3565 268.813 33.7438 263.053C36.16 259.219 39.3645 255.943 43.1445 253.442C46.834 250.811 51.0413 248.995 55.4868 248.115C62.0747 247.018 65.0297 249.721 66.2025 251.429C67.3752 253.137 68.8382 256.861 65.4516 262.621C63.0355 266.455 59.8309 269.731 56.0509 272.231C50.6708 275.927 45.2676 277.82 40.895 277.821ZM58.4619 255.307C56.3047 255.307 52.2461 256.218 47.3578 259.576C40.5043 264.284 38.7273 269.194 39.1299 270.037C39.7654 270.705 44.9826 270.808 51.8376 266.097C58.674 261.401 60.4592 256.505 60.0678 255.644C59.5825 255.362 59.0194 255.244 58.4619 255.307Z" fill="#4AAB69"/>
    <path d="M39.9507 232.15C39.9507 234.168 36.4629 235.803 32.1595 235.803C27.8562 235.803 24.3684 234.168 24.3684 232.15C24.3684 230.131 27.8569 225.747 32.1595 225.747C36.4621 225.747 39.9507 230.132 39.9507 232.15ZM255.562 190.049C255.562 192.066 252.075 193.703 247.771 193.703C243.468 193.703 239.98 192.066 239.98 190.049C239.98 188.032 243.469 183.646 247.771 183.646C252.074 183.646 255.562 188.031 255.562 190.049Z" fill="#B44031"/>
    <path d="M134.548 185.021C134.548 187.039 131.06 188.675 126.757 188.675C122.454 188.675 118.966 187.039 118.966 185.021C118.966 183.003 122.454 178.618 126.757 178.618C131.06 178.618 134.548 183.004 134.548 185.021Z" fill="#BD5B31"/>
    <path d="M190.865 115.096C190.835 118.75 190.664 122.076 190.545 123.966C181.437 119.689 172.115 115.881 162.617 112.559C159.097 111.338 155.563 110.215 152.117 109.218C151.669 109.086 151.234 108.917 150.815 108.712C145.154 105.957 140.085 102.122 135.895 97.4229C137.762 95.2505 139.322 92.8317 140.531 90.2345C144.265 94.928 149.002 98.7265 154.394 101.352C158.018 102.401 161.655 103.56 165.303 104.827C173.831 107.774 182.404 111.256 190.865 115.096Z" fill="#FFA200"/>
    <path d="M212.035 134.779C205.026 130.999 197.83 127.352 190.545 123.966C190.664 122.076 190.835 118.75 190.865 115.096C196.981 117.864 203.039 120.826 208.984 123.899L212.035 134.779Z" fill="#FF9500"/>
    <path d="M307.029 190.178L298.241 193.043C297.139 191.886 296.095 190.674 295.116 189.411C289.535 184.999 254.248 157.532 212.018 134.784L208.967 123.905C259.07 149.756 301.024 183.652 301.024 183.652C302.779 186.037 304.79 188.223 307.022 190.17L307.029 190.178Z" fill="#FF8100"/>
    <path d="M182.765 239.963C178.01 239.963 176.813 251.522 176.813 251.522L188.577 247.801C188.577 247.801 187.52 239.963 182.765 239.963Z" fill="#F05D00"/>
    <path d="M249.367 48.5076C211.733 31.5144 183.301 26.7214 182.448 26.5807C182.442 26.5767 182.434 26.5742 182.426 26.5733V26.5807C172.788 23.9632 162.52 25.0364 153.631 29.5905C144.742 34.1445 137.872 41.8515 134.366 51.2033C130.86 60.5552 130.97 70.8787 134.675 80.1539C138.379 89.429 145.411 96.9881 154.394 101.352C158.018 102.401 161.655 103.56 165.303 104.827C173.737 107.74 182.207 111.178 190.571 114.959C189.822 111.494 189.443 107.959 189.439 104.414C189.439 74.4163 216 49.9333 249.367 48.5076Z" fill="#FDBB29"/>
    <path d="M298.241 193.043L269.178 202.525L217.936 219.246L217.877 219.261L217.855 219.268L215.25 220.117C204.185 224.433 200.382 236.622 199.072 244.48L208.084 241.63C209.55 236.205 212.415 230.118 218.041 227.819L219.879 227.216L234.196 222.55L256.111 215.399L271.716 210.309L300.797 200.821L305.455 199.303C302.851 197.457 300.435 195.361 298.241 193.043Z" fill="#F05D00"/>
    <path d="M170.886 43.9869C170.925 43.9675 168.645 44.6142 168.159 44.7973C167.186 45.168 166.239 45.6045 165.324 46.104C163.529 47.0713 161.903 48.3244 160.51 49.8143C159.84 50.5536 159.238 51.3504 158.708 52.1955C158.192 53.0617 157.753 53.9713 157.396 54.9139C156.696 56.9251 156.331 59.0379 156.317 61.1676V61.242C156.306 62.1105 155.964 62.9419 155.36 63.5663C154.756 64.1907 153.937 64.561 153.069 64.6013C152.202 64.6417 151.351 64.3492 150.692 63.7836C150.033 63.218 149.615 62.422 149.523 61.5583C149.193 58.6321 149.348 55.6714 149.984 52.796C150.678 49.8063 151.956 46.983 153.743 44.4877C155.519 42.0266 157.687 39.8732 160.159 38.1134C161.37 37.2432 162.639 36.457 163.957 35.7604C164.618 35.4129 165.288 35.0833 165.984 34.7782C166.333 34.6249 167.97 33.9923 168.315 33.8911C169.654 33.5502 171.073 33.7551 172.261 34.4606C173.449 35.1662 174.307 36.3147 174.648 37.6535C174.989 38.9923 174.784 40.4117 174.079 41.5994C173.373 42.7872 172.225 43.646 170.886 43.9869Z" fill="white"/>
    <path d="M154.39 83.2931C157.271 83.2931 159.607 80.9573 159.607 78.076C159.607 75.1946 157.271 72.8588 154.39 72.8588C151.508 72.8588 149.173 75.1946 149.173 78.076C149.173 80.9573 151.508 83.2931 154.39 83.2931Z" fill="white"/>
    <path d="M373.492 159.968C373.49 169.219 370.29 178.184 364.434 185.346C358.579 192.507 350.427 197.424 341.361 199.263C332.295 201.102 322.872 199.751 314.689 195.437C306.505 191.124 300.065 184.114 296.458 175.595C303.615 180.465 312.156 182.89 320.805 182.506C329.453 182.121 337.746 178.95 344.443 173.464C351.14 167.978 355.883 160.473 357.963 152.069C360.042 143.666 359.348 134.815 355.982 126.839C361.38 130.515 365.798 135.455 368.85 141.23C371.902 147.004 373.495 153.437 373.492 159.968Z" fill="#FED987"/>
    <path d="M359.137 142.458C359.136 149.75 357.146 156.903 353.382 163.149C349.619 169.394 344.224 174.495 337.777 177.903C331.331 181.311 324.077 182.897 316.797 182.49C309.517 182.084 302.485 179.7 296.458 175.595C293.085 167.618 292.385 158.764 294.463 150.357C296.54 141.949 301.283 134.44 307.983 128.952C314.683 123.464 322.979 120.293 331.631 119.912C340.283 119.531 348.826 121.961 355.982 126.839C358.071 131.781 359.144 137.093 359.137 142.458Z" fill="#FEE5AE"/>
    <g clip-path="url(#clip0_1_69)">
    <path fillRule="evenodd" clipRule="evenodd" d="M584.421 265.798C588.309 256.91 590.278 247.301 590.2 237.6C590.207 234.36 590.029 231.122 589.666 227.902C589.22 223.866 588.394 219.881 587.2 216C586.409 213.449 585.476 210.944 584.407 208.496C583.026 205.314 581.349 202.269 579.4 199.4C578.516 198.109 577.594 196.843 576.637 195.605C574.325 192.599 571.771 189.788 569 187.2C568.633 186.859 568.262 186.522 567.888 186.188C566.288 184.761 564.713 183.482 563.163 182.352C561.582 181.19 559.924 180.137 558.2 179.2C561.075 178.09 563.876 176.795 566.584 175.323C570.802 173.02 574.821 170.369 578.6 167.4C585.267 162.2 591.2 156 596.4 148.8C601.6 141.6 605.867 133.6 609.2 124.8C612.533 116 614.2 106.533 614.2 96.4C614.201 95.2529 614.176 94.106 614.126 92.96C613.723 83.8267 611.681 76.1733 608 70C603.867 63.0667 598.733 57.4667 592.6 53.2C586.467 48.9333 579.667 46 572.2 44.4C564.733 42.8 557.667 42 551 42C550.002 41.9999 549.004 42.0042 548.006 42.013C533.475 42.114 518.97 43.2458 504.6 45.4C489.667 47.6667 475.267 50.2667 461.4 53.2C454.467 101.2 447.2 148.867 439.6 196.2C432 243.533 421.8 290.533 409 337.2C417.533 338.8 426.733 339.6 436.6 339.6C439.713 339.599 442.826 339.52 445.936 339.363C454.271 338.927 462.573 338.004 470.8 336.6C482.667 334.6 494.267 331.667 505.6 327.8C516.933 323.933 527.733 319.133 538 313.4C539.906 312.336 541.787 311.228 543.641 310.077C551.355 305.324 558.518 299.731 565 293.4C572.733 285.8 578.867 277.333 583.4 268C583.754 267.272 584.094 266.538 584.421 265.798ZM648.6 324.8L579.4 338.4C587.4 302.4 595 267.2 602.2 232.8C605.133 218.4 608.2 203.2 611.4 187.2C614.6 171.2 617.667 155.467 620.6 140C623.533 124.533 626.333 109.6 629 95.2C631.667 80.8 633.933 67.6 635.8 55.6C643.208 53.293 650.696 51.2521 658.25 49.481C658.367 49.4539 658.483 49.4269 658.6 49.4C666.067 47.6667 673.733 46.1333 681.6 44.8C686.078 44.0321 690.589 43.4748 695.119 43.13C698.008 42.9131 700.903 42.803 703.8 42.8C715.8 42.8 725.867 44.8 734 48.8C739.626 51.5181 744.752 55.1679 749.161 59.595C750.83 61.2876 752.38 63.0936 753.8 65C758.867 71.8 762.467 79.7333 764.6 88.8C766.733 97.8667 767.8 107.6 767.8 118C767.8 132.933 765.067 147.333 759.6 161.2C754.133 175.067 746.8 187.4 737.6 198.2C728.4 209 717.867 217.6 706 224C696.428 229.268 685.854 232.459 674.966 233.366C672.981 233.522 670.991 233.6 669 233.6H664.6C662.467 242.667 660.467 252.533 658.6 263.2C656.733 273.867 655.133 283.733 653.8 292.8C651.933 303.467 650.2 314.133 648.6 324.8ZM691 91.2C688.067 108.8 685.133 125.467 682.2 141.2C679.267 156.933 676.067 173.733 672.6 191.6C676.867 190.533 681.333 188.067 686 184.2C688.597 182.028 690.992 179.625 693.155 177.021C695.275 174.477 697.227 171.797 699 169C703 162.733 706.2 155.467 708.6 147.2C711 138.933 712.2 130.267 712.2 121.2C712.216 118.405 712.011 115.613 711.587 112.85C711.121 109.928 710.389 107.296 709.391 104.955C708.458 102.717 707.178 100.64 705.6 98.8C701.847 94.478 697.754 91.9993 693.322 91.364C692.553 91.2542 691.777 91.1994 691 91.2ZM497.238 203.979C497.703 201.321 498.157 198.662 498.6 196C499.049 195.887 499.504 195.796 499.962 195.727C500.504 195.644 501.052 195.602 501.6 195.6H505C506.804 195.603 508.607 195.692 510.403 195.868C512.887 196.113 515.356 196.491 517.8 197C522.333 197.933 526.533 199.467 530.4 201.6C530.909 201.88 531.41 202.173 531.905 202.478C535 204.359 537.74 206.77 540 209.6C542.533 212.8 543.8 216.8 543.8 221.6C543.8 222.223 543.782 222.846 543.746 223.468C543.519 229.037 541.425 234.367 537.8 238.6C537.301 239.182 536.786 239.751 536.256 240.306C532.455 244.255 527.962 247.473 523 249.8C517.133 252.6 511 254.667 504.6 256C503.714 256.185 502.828 256.364 501.94 256.539C499.319 257.054 496.816 257.497 494.433 257.87C492.097 258.239 489.752 258.549 487.4 258.8C488.467 252.133 489.467 246.333 490.4 241.4C491.333 236.467 492.2 231.733 493 227.2C493.8 222.667 494.667 217.933 495.6 213C495.734 212.292 495.867 211.584 495.998 210.875C496.399 208.707 496.813 206.408 497.238 203.979ZM520.6 99.2H516.6C516.067 102.133 515.467 105.6 514.8 109.6C514.133 113.6 513.4 117.8 512.6 122.2C511.8 126.6 510.933 130.933 510 135.2C509.067 139.467 508.333 143.2 507.8 146.4C513.667 145.333 519.533 143.867 525.4 142C528.467 141.03 531.498 139.948 534.487 138.758C536.759 137.852 538.998 136.866 541.2 135.8C545.867 133.533 549.6 131.067 552.4 128.4C553.346 127.514 554.178 126.514 554.876 125.422C555.997 123.687 556.595 121.666 556.6 119.6C556.614 118.076 556.414 116.557 556.006 115.088C555.45 113.107 554.418 111.291 553 109.8C551.504 108.24 549.806 106.888 547.949 105.781C546.557 104.945 545.103 104.216 543.6 103.6C539.733 102 535.733 100.867 531.6 100.2C529.888 99.9209 528.168 99.6928 526.443 99.516C524.872 99.358 523.383 99.2593 521.978 99.22C521.519 99.2069 521.059 99.2002 520.6 99.2Z" fill="url(#paint0_linear_1_69)"/>
    </g>
    <g clip-path="url(#clip1_1_69)">
    <path fillRule="evenodd" clipRule="evenodd" d="M578.421 256.798C582.309 247.91 584.278 238.301 584.2 228.6C584.207 225.36 584.029 222.122 583.666 218.902C583.22 214.866 582.394 210.881 581.2 207C580.409 204.449 579.476 201.944 578.407 199.496C577.026 196.314 575.349 193.269 573.4 190.4C572.516 189.109 571.594 187.843 570.637 186.605C568.325 183.599 565.771 180.788 563 178.2C562.633 177.859 562.262 177.522 561.888 177.188C560.288 175.761 558.713 174.482 557.163 173.352C555.582 172.19 553.924 171.137 552.2 170.2C555.075 169.09 557.876 167.795 560.584 166.323C564.802 164.02 568.821 161.369 572.6 158.4C579.267 153.2 585.2 147 590.4 139.8C595.6 132.6 599.867 124.6 603.2 115.8C606.533 107 608.2 97.5333 608.2 87.4C608.201 86.2529 608.176 85.106 608.126 83.96C607.723 74.8267 605.681 67.1733 602 61C597.867 54.0667 592.733 48.4667 586.6 44.2C580.467 39.9333 573.667 37 566.2 35.4C558.733 33.8 551.667 33 545 33C544.002 32.9999 543.004 33.0042 542.006 33.013C527.475 33.114 512.97 34.2458 498.6 36.4C483.667 38.6667 469.267 41.2667 455.4 44.2C448.467 92.2 441.2 139.867 433.6 187.2C426 234.533 415.8 281.533 403 328.2C411.533 329.8 420.733 330.6 430.6 330.6C433.713 330.599 436.826 330.52 439.936 330.363C448.271 329.927 456.573 329.004 464.8 327.6C476.667 325.6 488.267 322.667 499.6 318.8C510.933 314.933 521.733 310.133 532 304.4C533.906 303.336 535.787 302.228 537.641 301.077C545.355 296.324 552.518 290.731 559 284.4C566.733 276.8 572.867 268.333 577.4 259C577.754 258.272 578.094 257.538 578.421 256.798ZM642.6 315.8L573.4 329.4C581.4 293.4 589 258.2 596.2 223.8C599.133 209.4 602.2 194.2 605.4 178.2C608.6 162.2 611.667 146.467 614.6 131C617.533 115.533 620.333 100.6 623 86.2C625.667 71.8 627.933 58.6 629.8 46.6C637.208 44.293 644.696 42.2521 652.25 40.481C652.367 40.4539 652.483 40.4269 652.6 40.4C660.067 38.6667 667.733 37.1333 675.6 35.8C680.078 35.0321 684.589 34.4748 689.119 34.13C692.008 33.9131 694.903 33.803 697.8 33.8C709.8 33.8 719.867 35.8 728 39.8C733.626 42.5181 738.752 46.1679 743.161 50.595C744.83 52.2876 746.38 54.0936 747.8 56C752.867 62.8 756.467 70.7333 758.6 79.8C760.733 88.8667 761.8 98.6 761.8 109C761.8 123.933 759.067 138.333 753.6 152.2C748.133 166.067 740.8 178.4 731.6 189.2C722.4 200 711.867 208.6 700 215C690.428 220.268 679.854 223.459 668.966 224.366C666.981 224.522 664.991 224.6 663 224.6H658.6C656.467 233.667 654.467 243.533 652.6 254.2C650.733 264.867 649.133 274.733 647.8 283.8C645.933 294.467 644.2 305.133 642.6 315.8ZM685 82.2C682.067 99.8 679.133 116.467 676.2 132.2C673.267 147.933 670.067 164.733 666.6 182.6C670.867 181.533 675.333 179.067 680 175.2C682.597 173.028 684.992 170.625 687.155 168.021C689.275 165.477 691.227 162.797 693 160C697 153.733 700.2 146.467 702.6 138.2C705 129.933 706.2 121.267 706.2 112.2C706.216 109.405 706.011 106.613 705.587 103.85C705.121 100.928 704.389 98.2963 703.391 95.955C702.458 93.7174 701.178 91.6404 699.6 89.8C695.847 85.478 691.754 82.9993 687.322 82.364C686.553 82.2542 685.777 82.1994 685 82.2ZM491.238 194.979C491.703 192.321 492.157 189.662 492.6 187C493.049 186.887 493.504 186.796 493.962 186.727C494.504 186.644 495.052 186.602 495.6 186.6H499C500.804 186.603 502.607 186.692 504.403 186.868C506.887 187.113 509.356 187.491 511.8 188C516.333 188.933 520.533 190.467 524.4 192.6C524.909 192.88 525.41 193.173 525.905 193.478C529 195.359 531.74 197.77 534 200.6C536.533 203.8 537.8 207.8 537.8 212.6C537.8 213.223 537.782 213.846 537.746 214.468C537.519 220.037 535.425 225.367 531.8 229.6C531.301 230.182 530.786 230.751 530.256 231.306C526.455 235.255 521.962 238.473 517 240.8C511.133 243.6 505 245.667 498.6 247C497.714 247.185 496.828 247.364 495.94 247.539C493.319 248.054 490.816 248.497 488.433 248.87C486.097 249.239 483.752 249.549 481.4 249.8C482.467 243.133 483.467 237.333 484.4 232.4C485.333 227.467 486.2 222.733 487 218.2C487.8 213.667 488.667 208.933 489.6 204C489.734 203.292 489.867 202.584 489.998 201.875C490.399 199.707 490.813 197.408 491.238 194.979ZM514.6 90.2H510.6C510.067 93.1333 509.467 96.6 508.8 100.6C508.133 104.6 507.4 108.8 506.6 113.2C505.8 117.6 504.933 121.933 504 126.2C503.067 130.467 502.333 134.2 501.8 137.4C507.667 136.333 513.533 134.867 519.4 133C522.467 132.03 525.498 130.948 528.487 129.758C530.759 128.852 532.998 127.866 535.2 126.8C539.867 124.533 543.6 122.067 546.4 119.4C547.346 118.514 548.178 117.514 548.876 116.422C549.997 114.687 550.595 112.666 550.6 110.6C550.614 109.076 550.414 107.557 550.006 106.088C549.45 104.107 548.418 102.291 547 100.8C545.504 99.2396 543.806 97.8877 541.949 96.781C540.557 95.945 539.103 95.2159 537.6 94.6C533.733 93 529.733 91.8667 525.6 91.2C523.888 90.9209 522.168 90.6928 520.443 90.516C518.872 90.358 517.383 90.2593 515.978 90.22C515.519 90.2069 515.059 90.2002 514.6 90.2Z" fill="url(#paint1_linear_1_69)"/>
    </g>
    <defs>
    <linearGradient id="paint0_linear_1_69" x1="409" y1="42" x2="767.8" y2="42" gradientUnits="userSpaceOnUse">
    <stop stop-color="#EF6C00"/>
    <stop offset="1" stop-color="#FF6F00"/>
    </linearGradient>
    <linearGradient id="paint1_linear_1_69" x1="403" y1="33" x2="761.8" y2="33" gradientUnits="userSpaceOnUse">
    <stop stop-color="#F57C00"/>
    <stop offset="1" stop-color="#EF6C00"/>
    </linearGradient>
    <clipPath id="clip0_1_69">
    <rect width="358.8" height="297.6" fill="white" transform="translate(409 42)"/>
    </clipPath>
    <clipPath id="clip1_1_69">
    <rect width="358.8" height="297.6" fill="white" transform="translate(403 33)"/>
    </clipPath>
    </defs>
    </svg>